<?xml version="1.0" encoding="UTF-8" standalone="no"?>
<!-- Created with Inkscape (http://www.inkscape.org/) -->

<svg
   width="80cm"
   height="100cm"
   viewBox="0 0 800 1000"
   version="1.1"
   id="svg5926"
   xml:space="preserve"
   inkscape:export-filename="shtenderBlack.svg"
   inkscape:export-xdpi="96"
   inkscape:export-ydpi="96"
   inkscape:version="1.2 (dc2aedaf03, 2022-05-15)"
   sodipodi:docname="logoMain.svg"
   xmlns:inkscape="http://www.inkscape.org/namespaces/inkscape"
   xmlns:sodipodi="http://sodipodi.sourceforge.net/DTD/sodipodi-0.dtd"
   xmlns:xlink="http://www.w3.org/1999/xlink"
   xmlns="http://www.w3.org/2000/svg"
   xmlns:svg="http://www.w3.org/2000/svg"><sodipodi:namedview
     id="namedview5928"
     pagecolor="#ffffff"
     bordercolor="#000000"
     borderopacity="0.25"
     inkscape:showpageshadow="2"
     inkscape:pageopacity="0.0"
     inkscape:pagecheckerboard="0"
     inkscape:deskcolor="#d1d1d1"
     inkscape:document-units="mm"
     showgrid="false"
     inkscape:zoom="0.37282197"
     inkscape:cx="1437.6835"
     inkscape:cy="1455.1181"
     inkscape:window-width="2400"
     inkscape:window-height="1271"
     inkscape:window-x="2391"
     inkscape:window-y="-9"
     inkscape:window-maximized="1"
     inkscape:current-layer="g22557" /><defs
     id="defs5923"><linearGradient
       inkscape:collect="always"
       id="linearGradient19131"><stop
         style="stop-color:#ffffff;stop-opacity:1;"
         offset="0"
         id="stop19127" /><stop
         style="stop-color:#b8b8b8;stop-opacity:1;"
         offset="1"
         id="stop19129" /></linearGradient><rect
       x="-4581.2749"
       y="75.102867"
       width="4667.1069"
       height="1802.4689"
       id="rect19032" /><linearGradient
       id="linearGradient17114"
       inkscape:swatch="solid"><stop
         style="stop-color:#000000;stop-opacity:1;"
         offset="0"
         id="stop17112" /></linearGradient><linearGradient
       inkscape:collect="always"
       xlink:href="#linearGradient19131"
       id="linearGradient19133"
       x1="-203.71906"
       y1="246.39706"
       x2="354.65649"
       y2="246.39706"
       gradientUnits="userSpaceOnUse"
       gradientTransform="matrix(0.9256479,0,0,0.9256479,289.50417,303.44945)" /></defs><g
     inkscape:label="Шар 1"
     inkscape:groupmode="layer"
     id="layer1"><g
       id="g22557"><ellipse
         style="fill:#1a1a1a;fill-opacity:1;fill-rule:evenodd;stroke:#171717;stroke-width:1;stroke-linecap:round;stroke-linejoin:round;stroke-dasharray:none;stroke-opacity:1;paint-order:stroke fill markers"
         id="path21367"
         cx="400"
         cy="390.15399"
         rx="355.98135"
         ry="349.59427"
         inkscape:export-filename="logo.svg"
         inkscape:export-xdpi="96"
         inkscape:export-ydpi="96" /><path
         id="path21152"
         style="fill:#333333;fill-opacity:1;fill-rule:evenodd;stroke:#000000;stroke-width:1.465;stroke-linecap:round;stroke-linejoin:round;stroke-dasharray:none;stroke-opacity:1;paint-order:stroke fill markers"
         d="M 130.46999,461.06252 A 287.03973,287.03973 0 0 0 482.02043,664.02985 287.03973,287.03973 0 0 0 596.91957,602.5223 284.02881,284.02881 0 0 1 488.02723,659.30345 284.02881,284.02881 0 0 1 140.16459,458.46486 284.02881,284.02881 0 0 1 341.00305,110.60172 284.02881,284.02881 0 0 1 463.69715,105.32948 287.03973,287.03973 0 0 0 333.4378,109.51195 287.03973,287.03973 0 0 0 130.46999,461.06252 Z" /><g
         transform="matrix(0.13785552,-0.02808406,-0.02857953,-0.14028761,189.76439,840.44767)"
         fill="#000000"
         stroke="none"
         id="g7954"><path
           d="m 2446,4808 c -2,-18 -12,-98 -20,-178 -9,-80 -30,-253 -46,-385 -17,-132 -41,-332 -55,-445 -14,-113 -28,-261 -32,-330 -5,-117 -4,-126 15,-143 11,-10 39,-21 62,-24 28,-4 37,-9 28,-14 -38,-25 -122,4 -138,47 -12,30 3,176 60,594 22,162 40,304 39,315 -1,21 -115,-649 -194,-1140 -25,-154 -45,-302 -45,-328 0,-62 27,-141 89,-258 137,-261 185,-482 146,-684 -33,-175 -85,-243 -217,-285 -103,-32 -157,-62 -204,-112 -54,-57 -69,-84 -90,-153 -43,-151 23,-324 156,-409 47,-30 125,-56 170,-56 h 37 l 6,-112 c 7,-151 50,-271 120,-336 20,-19 29,-22 45,-13 34,18 31,36 -22,117 -66,102 -86,164 -86,266 v 79 l 38,15 c 103,41 177,108 219,198 24,53 28,73 28,151 v 90 l -70,145 -70,145 1,85 c 1,68 8,105 35,185 45,136 45,198 -1,325 l -35,95 2,320 c 2,324 28,1747 38,2083 5,171 2,223 -9,150 z m -70,-1592 c 27,-27 34,-42 34,-74 0,-115 -157,-152 -206,-48 -36,74 16,156 98,156 32,0 47,-7 74,-34 z m -54,-1757 c 59,-29 115,-84 146,-144 22,-42 26,-63 26,-130 0,-98 -28,-159 -102,-227 -182,-163 -465,-51 -499,197 -18,137 89,288 232,326 49,13 150,2 197,-22 z"
           id="path7912"
           style="fill:#cccccc" /><path
           d="m 2250,3200 c -41,-41 -35,-93 15,-126 46,-30 115,11 115,68 0,64 -86,102 -130,58 z"
           id="path7914" /><path
           d="m 2070,4590 c -213,-17 -427,-78 -635,-180 -66,-32 -129,-65 -140,-74 -11,-9 25,6 80,33 267,131 558,188 883,171 l 102,-5 v 28 c 0,23 -4,27 -27,27 -16,0 -57,2 -93,4 -36,2 -112,0 -170,-4 z"
           id="path7916" /><path
           d="m 2502,4539 c 3,-28 8,-34 38,-41 149,-37 358,-124 502,-210 l 38,-22 30,29 c 16,16 30,34 30,41 0,16 -220,124 -320,158 -103,34 -215,63 -273,72 l -48,6 z"
           id="path7918" /><path
           d="m 3279,4412 c -42,-46 -254,-287 -623,-709 l -177,-203 3,-156 3,-157 405,609 c 223,335 413,621 423,636 28,41 15,34 -34,-20 z"
           id="path7920"
           style="fill:#cccccc" /><path
           d="m 2382,4420 c 0,-14 2,-19 5,-12 2,6 2,18 0,25 -3,6 -5,1 -5,-13 z"
           id="path7922" /><path
           d="m 2372,4360 c 0,-14 2,-19 5,-12 2,6 2,18 0,25 -3,6 -5,1 -5,-13 z"
           id="path7924" /><path
           d="m 1463,4301 c -405,-198 -631,-451 -547,-614 24,-46 746,-957 758,-957 12,0 418,412 411,418 -2,2 -43,-26 -91,-62 -69,-52 -90,-64 -101,-55 -18,15 -13,21 126,134 101,82 128,111 118,122 -3,2 -65,-41 -138,-97 -74,-55 -139,-100 -145,-100 -38,0 -7,37 123,145 150,125 193,165 177,165 -5,0 -85,-57 -178,-126 -141,-105 -171,-124 -182,-112 -11,11 14,36 152,153 298,252 301,260 19,50 -228,-169 -210,-158 -224,-141 -9,11 23,43 161,159 95,80 191,162 213,182 37,33 35,32 -25,-9 -36,-24 -134,-96 -219,-160 -85,-64 -161,-116 -168,-116 -32,0 -6,34 80,107 179,151 308,263 302,263 -6,0 -74,-50 -293,-213 -115,-86 -135,-98 -148,-86 -12,12 8,33 144,146 86,73 177,151 202,173 l 45,41 -45,-29 c -25,-16 -121,-86 -214,-155 -93,-70 -173,-124 -178,-121 -21,14 4,41 155,167 89,75 180,153 202,173 35,32 32,31 -30,-12 -38,-26 -135,-97 -214,-156 -79,-59 -150,-108 -158,-108 -34,0 -4,36 101,124 155,129 289,246 281,246 -3,0 -101,-70 -216,-156 -181,-135 -212,-155 -225,-143 -12,13 7,32 139,142 83,70 175,147 202,173 l 50,46 -55,-38 c -30,-21 -126,-92 -214,-157 -136,-101 -161,-117 -173,-105 -12,12 11,35 154,156 92,78 186,158 208,177 39,36 39,36 5,14 -19,-13 -115,-83 -214,-156 -98,-73 -184,-133 -192,-133 -36,0 -1,39 159,173 171,144 253,220 177,165 -19,-13 -113,-82 -207,-152 -158,-117 -194,-136 -192,-103 0,7 64,65 142,130 78,64 167,140 197,168 l 55,51 -55,-38 c -30,-21 -126,-92 -213,-157 -146,-109 -177,-126 -177,-94 0,7 71,72 158,144 302,254 302,261 -2,34 -104,-77 -193,-138 -198,-135 -22,14 5,43 168,180 305,258 304,259 -33,10 -158,-117 -194,-136 -192,-103 0,7 62,63 138,126 152,124 277,237 221,198 -19,-13 -115,-84 -213,-157 -130,-96 -182,-129 -190,-121 -7,7 -7,14 -1,20 12,11 406,324 418,333 6,4 8,9 5,12 -3,4 -51,-16 -106,-43 z"
           id="path7926"
           style="fill:#b3b3b3" /><path
           d="m 2362,4290 c 0,-14 2,-19 5,-12 2,6 2,18 0,25 -3,6 -5,1 -5,-13 z"
           id="path7928" /><path
           d="m 3235,4220 -27,-39 119,-118 c 128,-126 209,-227 290,-363 303,-507 324,-1130 57,-1663 -197,-396 -556,-710 -973,-854 -74,-26 -81,-30 -81,-55 0,-14 -3,-34 -7,-43 -5,-15 -1,-16 28,-10 19,3 88,25 153,47 706,237 1191,895 1211,1643 11,427 -131,846 -400,1175 -83,101 -269,277 -331,313 -7,4 -23,-10 -39,-33 z"
           id="path7930"
           style="fill:#333333" /><path
           d="m 2495,3055 c -16,-13 -25,-24 -19,-25 6,0 21,11 34,25 30,32 24,32 -15,0 z"
           id="path7932"
           style="fill:#b3b3b3" /><path
           d="m 1930,2894 c -325,-327 -558,-512 -700,-555 -62,-18 -79,-20 -159,-11 -112,12 -187,1 -263,-40 -71,-38 -121,-92 -157,-167 -23,-49 -26,-68 -25,-156 0,-83 4,-108 23,-149 46,-97 138,-174 243,-202 76,-20 133,-17 213,11 69,24 70,24 86,5 17,-19 17,-19 43,1 25,19 26,23 13,42 -13,20 -11,26 24,72 45,60 68,118 76,195 5,53 0,81 -38,216 -19,65 -7,88 74,143 90,60 363,214 552,309 l 140,71 -3,90 c -2,51 3,134 12,188 9,53 14,98 13,100 -2,1 -77,-72 -167,-163 z m -836,-644 c 159,-60 238,-259 162,-410 -47,-94 -104,-140 -206,-166 -108,-27 -213,6 -292,95 -149,165 -73,426 142,492 49,14 138,9 194,-11 z"
           id="path7934"
           style="fill:#cccccc" /><path
           d="m 2518,2974 c -50,-37 -68,-70 -20,-36 27,20 79,72 71,72 -2,0 -25,-17 -51,-36 z"
           id="path7936"
           style="fill:#b3b3b3" /><path
           d="m 2553,2899 c -46,-33 -83,-67 -83,-75 0,-9 35,15 85,57 76,65 91,79 83,79 -2,0 -40,-28 -85,-61 z"
           id="path7938"
           style="fill:#b3b3b3" /><path
           d="m 2573,2814 c -57,-41 -103,-82 -103,-90 0,-20 8,-15 118,79 81,69 100,87 90,87 -2,0 -49,-34 -105,-76 z"
           id="path7940"
           style="fill:#b3b3b3" /><path
           d="m 2595,2731 c -84,-61 -121,-94 -123,-110 -3,-19 21,-3 117,78 104,88 141,122 129,121 -2,-1 -57,-40 -123,-89 z"
           id="path7942"
           style="fill:#b3b3b3" /><path
           d="m 2618,2649 c -101,-75 -148,-117 -148,-130 0,-10 2,-19 5,-19 3,0 69,55 147,121 177,151 164,139 153,138 -6,0 -76,-50 -157,-110 z"
           id="path7944"
           style="fill:#b3b3b3" /><path
           d="m 2800,2682 c -14,-9 -96,-70 -182,-134 -112,-84 -158,-124 -158,-138 0,-11 3,-20 6,-20 7,0 364,300 364,306 0,6 -2,5 -30,-14 z"
           id="path7946"
           style="fill:#b3b3b3" /><path
           d="m 2845,2616 c -16,-13 -108,-80 -202,-150 -142,-105 -173,-132 -173,-152 0,-13 17,-75 37,-137 47,-144 48,-198 6,-327 -17,-52 -34,-106 -37,-119 -4,-19 16,-50 100,-157 128,-163 147,-177 234,-182 144,-8 320,104 546,350 81,88 141,165 133,172 -2,3 -100,-72 -218,-165 -118,-93 -218,-169 -222,-169 -26,0 -12,24 38,67 179,149 330,278 343,291 28,27 -104,-65 -265,-187 -140,-105 -162,-118 -175,-106 -9,9 -11,18 -5,23 6,5 91,77 191,160 99,82 187,158 195,168 13,16 -101,-66 -318,-229 -57,-42 -99,-67 -108,-63 -8,3 -15,9 -15,13 0,5 71,68 158,140 86,73 177,151 202,173 l 45,42 -55,-38 c -30,-21 -122,-88 -205,-149 -183,-135 -170,-128 -184,-111 -9,11 24,43 165,162 97,82 190,162 207,177 l 32,29 -45,-30 c -25,-17 -124,-89 -220,-160 -150,-112 -177,-129 -189,-117 -13,12 -11,17 10,34 70,55 359,303 366,314 5,9 3,9 -8,1 -308,-230 -401,-295 -415,-290 -23,9 -16,18 66,87 170,142 320,271 320,276 0,6 -55,-34 -262,-189 -87,-65 -162,-118 -167,-118 -5,0 -11,7 -14,15 -4,9 22,37 76,81 108,90 287,242 312,267 11,11 -5,3 -35,-19 -52,-36 -352,-256 -376,-275 -7,-6 -16,-4 -23,5 -10,11 22,43 172,169 101,86 190,164 198,174 12,16 12,17 -1,7 -8,-6 -104,-76 -212,-157 -167,-124 -199,-143 -209,-131 -7,9 -8,18 -3,23 5,4 77,64 159,133 143,119 257,221 225,201 -8,-5 -104,-76 -214,-157 -169,-126 -201,-146 -213,-134 -11,12 11,35 154,155 236,198 267,227 173,162 -41,-29 -136,-98 -210,-154 -165,-123 -155,-118 -169,-101 -10,12 22,43 169,168 219,185 239,202 220,192 -17,-8 -285,-205 -370,-271 -48,-38 -56,-41 -69,-28 -10,9 -11,18 -6,23 6,5 75,63 155,130 155,129 248,211 240,211 -3,0 -18,-10 -35,-23 z"
           id="path7948"
           style="fill:#999999" /><path
           d="m 1980,2559 c -63,-31 -115,-63 -115,-70 0,-8 99,-139 220,-293 245,-310 237,-305 223,-145 -11,119 -52,244 -140,419 l -73,145 z"
           id="path7950"
           style="fill:#b3b3b3" /><path
           d="m 1099,1428 c 24,-31 214,-155 320,-208 100,-50 306,-130 336,-130 8,0 15,8 15,18 0,14 -17,22 -72,36 -200,51 -458,175 -593,285 -18,15 -19,15 -6,-1 z"
           id="path7952" /></g><rect
         style="fill:none;fill-rule:evenodd;stroke-width:0.264583"
         id="rect8401"
         width="198.70967"
         height="1000"
         x="154.84653"
         y="-56.001842" /><g
         id="path9508"
         transform="translate(142.80291,-214.57624)"><g
           id="g18159"><path
             style="fill:context-stroke;stroke-width:0.1855"
             d="m 56.78043,470.99242 c -0.282039,-0.003 -0.485667,0.2503 -0.570848,0.4958 l -0.546683,1.53228 c -0.471035,0.18209 -0.700459,0.56134 -0.790632,0.48519 -0.07048,-0.0595 -3.79e-4,-0.1112 -0.192076,-0.25649 -0.184058,-0.13949 -0.46976,-0.0656 -0.60505,0.11799 -0.147927,0.17305 -0.166892,0.46591 0.01561,0.62268 0.174205,0.16931 0.47765,0.15882 0.64531,-0.0151 0.214324,-0.18863 0.406282,-0.68108 0.878853,-0.58906 0.133577,0.34159 -0.06582,0.57909 -0.259054,0.78289 -0.160426,0.1692 -0.289848,0.42585 -0.186674,0.65831 0.09831,0.22345 0.404644,0.34444 0.614856,0.19954 0.230105,-0.13108 0.362294,-0.46631 0.182038,-0.69591 -0.138942,-0.17698 -0.318701,-0.12459 -0.341171,-0.22195 -0.01696,-0.0735 0.194934,-0.27018 0.349372,-0.80898 l 1.50861,-0.88516 c 0.178944,-0.1217 0.341789,-0.31755 0.304328,-0.59086 l -1.597423,0.8896 z m -2.460508,2.36721 c 0.257377,-0.097 0.522613,0.15269 0.415421,0.3888 -0.08555,0.22311 -0.439213,0.30188 -0.579657,0.0891 -0.126139,-0.16167 -0.01196,-0.41153 0.164236,-0.47791 z m 1.142992,0.95158 c 0.232374,-0.13174 0.528842,0.17432 0.40797,0.40576 -0.06421,0.16698 -0.284599,0.29711 -0.447746,0.1817 -0.206216,-0.13102 -0.189763,-0.4895 0.03978,-0.58746 z"
             id="path18161" /></g></g><text
         xml:space="preserve"
         transform="matrix(0.26458333,0,0,0.26458333,154.84653,-56.001842)"
         id="text19030"
         style="font-style:normal;font-variant:normal;font-weight:normal;font-stretch:normal;font-size:1156.54px;font-family:Gabriola;-inkscape-font-specification:Gabriola;text-align:center;writing-mode:lr-tb;text-orientation:sideways;white-space:pre;shape-inside:url(#rect19032);fill:#ffff00;fill-opacity:0;fill-rule:evenodd;stroke:#000000;stroke-width:62.6079;stroke-linecap:round;stroke-linejoin:round;stroke-dasharray:none;paint-order:normal" /><text
         xml:space="preserve"
         style="font-style:italic;font-variant:normal;font-weight:bold;font-stretch:normal;font-size:120px;font-family:'Comic Sans MS';-inkscape-font-specification:'Comic Sans MS Bold Italic';text-align:center;writing-mode:lr-tb;text-orientation:upright;baseline-shift:sub;text-anchor:middle;fill:#800000;fill-opacity:1;fill-rule:evenodd;stroke:url(#linearGradient19133);stroke-width:28.265;stroke-linecap:round;stroke-linejoin:round;stroke-dasharray:none;paint-order:stroke fill markers"
         id="text19102"
         transform="rotate(0.005107)"
         x="370.16556"
         y="424.27292">Перукарня</text></g></g></svg>
